<?xml version="1.0" encoding="UTF-8" standalone="no"?>
<svg
   xmlns:dc="http://purl.org/dc/elements/1.1/"
   xmlns:cc="http://creativecommons.org/ns#"
   xmlns:rdf="http://www.w3.org/1999/02/22-rdf-syntax-ns#"
   xmlns:svg="http://www.w3.org/2000/svg"
   xmlns="http://www.w3.org/2000/svg"
   xmlns:sodipodi="http://sodipodi.sourceforge.net/DTD/sodipodi-0.dtd"
   xmlns:inkscape="http://www.inkscape.org/namespaces/inkscape"
   width="13.826384mm"
   height="13.826384mm"
   viewBox="0 0 13.826384 13.826384"
   version="1.1"
   id="svg4615"
   inkscape:version="1.0.1 (3bc2e813f5, 2020-09-07)"
   sodipodi:docname="docbook.svg"
   inkscape:export-filename="logo.png"
   inkscape:export-xdpi="206.375"
   inkscape:export-ydpi="206.375">
  <defs
     id="defs4609">
    <clipPath
       clipPathUnits="userSpaceOnUse"
       id="clipPath3201-4">
      <rect
         style="opacity:1;fill:#ffffff;fill-opacity:1;stroke:none;stroke-width:3.20266;stroke-linecap:round;stroke-linejoin:round;stroke-miterlimit:4;stroke-dasharray:none;stroke-opacity:1"
         id="rect3203-9"
         width="172.32408"
         height="55.008789"
         x="433.53275"
         y="-103.58672"
         transform="matrix(1,0,0.46622809,0.88466455,0,0)" />
    </clipPath>
    <clipPath
       clipPathUnits="userSpaceOnUse"
       id="clipPath3205-2">
      <rect
         style="opacity:1;fill:#ffffff;fill-opacity:1;stroke:none;stroke-width:3.20266;stroke-linecap:round;stroke-linejoin:round;stroke-miterlimit:4;stroke-dasharray:none;stroke-opacity:1"
         id="rect3207-06"
         width="172.32405"
         height="55.008789"
         x="433.53275"
         y="-103.58672"
         transform="matrix(1,0,0.46622809,0.88466455,0,0)" />
    </clipPath>
    <clipPath
       clipPathUnits="userSpaceOnUse"
       id="clipPath3201-8-3-6">
      <rect
         style="opacity:1;fill:#ffffff;fill-opacity:1;stroke:none;stroke-width:3.20266;stroke-linecap:round;stroke-linejoin:round;stroke-miterlimit:4;stroke-dasharray:none;stroke-opacity:1"
         id="rect3203-4-6-1"
         width="172.32408"
         height="55.008789"
         x="433.53275"
         y="-103.58672"
         transform="matrix(1,0,0.46622809,0.88466455,0,0)" />
    </clipPath>
    <clipPath
       clipPathUnits="userSpaceOnUse"
       id="clipPath3205-5-5-1">
      <rect
         style="opacity:1;fill:#ffffff;fill-opacity:1;stroke:none;stroke-width:3.20266;stroke-linecap:round;stroke-linejoin:round;stroke-miterlimit:4;stroke-dasharray:none;stroke-opacity:1"
         id="rect3207-0-6-5"
         width="172.32405"
         height="55.008789"
         x="433.53275"
         y="-103.58672"
         transform="matrix(1,0,0.46622809,0.88466455,0,0)" />
    </clipPath>
  </defs>
  <sodipodi:namedview
     id="base"
     pagecolor="#ffffff"
     bordercolor="#666666"
     borderopacity="1.0"
     inkscape:pageopacity="0.0"
     inkscape:pageshadow="2"
     inkscape:zoom="2.8"
     inkscape:cx="90.011764"
     inkscape:cy="23.725389"
     inkscape:document-units="mm"
     inkscape:current-layer="layer1"
     inkscape:document-rotation="0"
     showgrid="false"
     fit-margin-top="0"
     fit-margin-left="0"
     fit-margin-right="0"
     fit-margin-bottom="0"
     inkscape:window-width="1920"
     inkscape:window-height="1016"
     inkscape:window-x="0"
     inkscape:window-y="27"
     inkscape:window-maximized="1"
     inkscape:snap-global="false"
     showguides="false" />
  <metadata
     id="metadata4612">
    <rdf:RDF>
      <cc:Work
         rdf:about="">
        <dc:format>image/svg+xml</dc:format>
        <dc:type
           rdf:resource="http://purl.org/dc/dcmitype/StillImage" />
        <dc:title></dc:title>
      </cc:Work>
    </rdf:RDF>
  </metadata>
  <g
     inkscape:label="Capa 1"
     inkscape:groupmode="layer"
     id="layer1"
     transform="translate(88.868262,-30.712499)">
    <circle
       style="display:inline;fill:#ffc2ff;fill-opacity:1;stroke:none;stroke-width:1.91192;stroke-linecap:round;stroke-linejoin:round;stroke-miterlimit:4;stroke-dasharray:none;stroke-dashoffset:5.18173;stroke-opacity:1"
       id="path25286-3"
       cx="-81.95507"
       cy="37.62569"
       r="6.9131918" />
    <path
       style="color:#000000;font-style:normal;font-variant:normal;font-weight:normal;font-stretch:normal;font-size:medium;line-height:normal;font-family:sans-serif;font-variant-ligatures:normal;font-variant-position:normal;font-variant-caps:normal;font-variant-numeric:normal;font-variant-alternates:normal;font-variant-east-asian:normal;font-feature-settings:normal;font-variation-settings:normal;text-indent:0;text-align:start;text-decoration:none;text-decoration-line:none;text-decoration-style:solid;text-decoration-color:#000000;letter-spacing:normal;word-spacing:normal;text-transform:none;writing-mode:lr-tb;direction:ltr;text-orientation:mixed;dominant-baseline:auto;baseline-shift:baseline;text-anchor:start;white-space:normal;shape-padding:0;shape-margin:0;inline-size:0;clip-rule:nonzero;display:inline;overflow:visible;visibility:visible;isolation:auto;mix-blend-mode:normal;color-interpolation:sRGB;color-interpolation-filters:linearRGB;solid-color:#000000;solid-opacity:1;vector-effect:none;fill:#ffffff;fill-opacity:1;fill-rule:evenodd;stroke:none;stroke-width:0.25303;stroke-linecap:butt;stroke-linejoin:miter;stroke-miterlimit:4;stroke-dasharray:none;stroke-dashoffset:0;stroke-opacity:1;color-rendering:auto;image-rendering:auto;shape-rendering:auto;text-rendering:auto;enable-background:accumulate;stop-color:#000000"
       d="m -82.107996,31.889535 c -3.142771,0 -5.69262,2.550407 -5.692652,5.692401 0,3.142757 2.549839,5.692913 5.692652,5.692913 3.142808,0 5.692674,-2.550156 5.692635,-5.692913 0,-3.141994 -2.549878,-5.692401 -5.692635,-5.692401 z m 0,0.250294 c 3.006009,0 5.440105,2.433859 5.44013,5.440083 0,3.005735 -2.434073,5.44035 -5.44013,5.44035 -3.006068,0 -5.440178,-2.434615 -5.440144,-5.44035 0,-3.006224 2.434124,-5.440083 5.440144,-5.440083 z"
       id="path9319-8-5-9" />
    <path
       style="fill:#850085;fill-opacity:1;stroke-width:0.113356"
       d="m -83.213852,41.029335 c -0.143834,-0.144094 -0.281779,-0.315005 -0.306576,-0.380484 -0.02477,-0.06573 -0.698068,-0.463917 -1.496157,-0.88511 -0.798086,-0.420937 -1.529575,-0.88536 -1.625525,-1.031744 -0.233148,-0.355965 -0.314493,-1.052981 -0.167356,-1.434479 0.09867,-0.25585 0.55056,-0.525098 2.615837,-1.558606 1.373094,-0.687159 2.560742,-1.249926 2.639217,-1.250683 0.07847,0 0.945208,0.369113 1.926077,0.821901 1.239885,0.572376 1.775112,0.875002 1.756206,0.993319 -0.02754,0.171911 -4.528293,2.587567 -4.843194,2.599202 -0.09351,0 -0.85867,-0.349897 -1.700339,-0.785502 -0.841666,-0.435856 -1.61362,-0.792327 -1.715453,-0.792827 -0.256481,0 -0.33645,0.400707 -0.176036,0.884346 0.121135,0.365316 0.269057,0.476052 1.487842,1.112136 l 1.353349,0.706118 0.277259,-0.217425 c 0.336473,-0.264694 0.677547,-0.278099 1.017792,-0.04044 0.242325,0.169391 0.322487,0.144114 1.640542,-0.554429 1.276262,-0.674767 1.388555,-0.760469 1.421082,-1.082555 0.04034,-0.399707 0.482575,-0.808759 0.874258,-0.808759 0.728232,0 1.076829,1.035278 0.504617,1.498694 -0.212543,0.171912 -0.374167,0.20731 -0.71325,0.151695 -0.388523,-0.0632 -0.599299,0.02528 -1.851467,0.679571 -0.972485,0.51574 -1.444109,0.831259 -1.512705,1.011771 -0.232667,0.612065 -0.96756,0.801928 -1.405983,0.363546 z m 0.817314,-0.561753 c 0.04358,-0.22754 -0.279694,-0.394647 -0.443499,-0.230067 -0.158639,0.15927 0.0076,0.504876 0.222657,0.463417 0.100556,-0.02528 0.199901,-0.123891 0.22081,-0.232594 z m 4.359314,-2.152225 c 0.07256,-0.20731 -0.03261,-0.424984 -0.205995,-0.424984 -0.199142,0 -0.31384,0.197195 -0.234867,0.402234 0.07742,0.199722 0.373147,0.217418 0.440881,0.02527 z"
       id="path13036-8"
       sodipodi:nodetypes="sssssscsssscsscsssssssssssssssssss" />
  </g>
</svg>
