<?xml version="1.0" encoding="UTF-8"?>
<svg width="64mm" height="64mm" version="1.1" viewBox="0 0 64 64" xmlns="http://www.w3.org/2000/svg" xmlns:cc="http://creativecommons.org/ns#" xmlns:dc="http://purl.org/dc/elements/1.1/" xmlns:rdf="http://www.w3.org/1999/02/22-rdf-syntax-ns#">
 <metadata>
  <rdf:RDF>
   <cc:Work rdf:about="">
    <dc:format>image/svg+xml</dc:format>
    <dc:type rdf:resource="http://purl.org/dc/dcmitype/StillImage"/>
    <dc:title/>
   </cc:Work>
  </rdf:RDF>
 </metadata>
 <g transform="translate(.76561 -36.42)">
  <g id="GelatoIcon" transform="matrix(1.0193 0 0 1.0193 -.072095 -1.3593)">
   <g>
    <path d="m31.302 51.316c-1.5281-1.1379-2.3638-1.6234-3.7727-2.1916-1.2849-0.51823-3.4591-1.0093-4.4725-1.01-0.23279 0-0.44346-0.03307-0.46823-0.07315-0.06083-0.09858 1.3145-1.3976 2.0837-1.968 1.1994-0.88934 2.8642-1.6175 4.4992-1.9679 1.1016-0.23608 3.2422-0.25676 4.3175-0.04168 1.5387 0.30776 3.1747 0.98385 4.5027 1.8608 0.8869 0.58568 2.4827 2.1953 3.1006 3.1274 0.53718 0.81042 1.2433 2.1236 1.1773 2.1896-0.02314 0.0232-0.40815-0.03006-0.85555-0.11829-1.0632-0.20967-3.2605-0.28842-4.5952-0.16467-1.3143 0.12186-2.0422 0.27649-3.1887 0.67733-0.51567 0.1803-1.0313 0.34524-1.1459 0.36654-0.16571 0.03073-0.4076-0.10964-1.1821-0.6864z" fill="#810331"/>
    <path d="m13.545 69.473c0.66566 1.1443 3.8831 7.058 6.7811 12.47 3.6892 6.8893 4.8596 9.0142 6.1992 11.255 1.7801 2.978 2.9505 4.4284 4.034 4.9994 0.27622 0.14554 0.56341 0.26447 0.63816 0.26447 0.21262 0 0.93143-0.36971 1.2976-0.6675 1.223-0.99444 2.8671-3.4642 5.6339-8.4628 0.33799-0.6106 2.2419-4.1335 4.2309-7.8287 3.3748-6.2698 5.9732-11.043 6.4875-11.916 0.02552-0.0437 0.0435-0.07742 0.06297-0.11333z" fill="#faf0df"/>
    <path d="m13.545 69.473c0.66566 1.1443 3.8831 7.058 6.7811 12.47 3.6892 6.8893 4.8596 9.0142 6.1992 11.255 1.7801 2.978 2.9505 4.4284 4.034 4.9994 0.27622 0.14554 0.56341 0.26447 0.63816 0.26447 0.21262 0 0.93143-0.36971 1.2976-0.6675 1.223-0.99444 2.8671-3.4642 5.6339-8.4628 0.33799-0.6106 2.2419-4.1335 4.2309-7.8287 3.3748-6.2698 5.9732-11.043 6.4875-11.916 0.02552-0.0437 0.0435-0.07742 0.06297-0.11334z" fill="#fff"/>
    <path d="m42.719 38.874c-0.29742-0.01266-0.59768 0.1032-0.81309 0.34293l-10.002 11.132c0.76266 0.52186 1.2471 0.94083 1.2471 0.94083s1.7321-0.98138 3.6476-1.0034c0.59189-0.0068 1.2169 0.0271 1.7981 0.07689l7.0191-7.8123c0.38291-0.4262 0.34821-1.0774-0.07803-1.4603l-2.1715-1.9513c-0.18648-0.16754-0.41629-0.25533-0.64765-0.26515zm-30.537 27.168-0.0758 0.19952c-0.11334 0.298-0.08938 1.327 0.044 1.8927 0.155 0.65752 0.40152 1.0886 0.65405 1.1437 0.10894 0.02385 0.23304 0.05469 0.27573 0.06895 0.04261 0.01424 1.5909 0.02902 3.4403 0.03205l3.3625 0.0057v-3.3431h-3.8504zm19.054 0.13765v0.80296c0 0.44161 0.02131 1.115 0.04641 1.4965l0.04596 0.69358 0.79189 0.02279c1.658 0.04736 10.372 0.05096 14.004 0.0057l3.7912-0.04704 0.23686-0.47019c0.2137-0.42401 0.24003-0.54409 0.26693-1.2221 0.02275-0.57186 0.0044-0.81541-0.08111-1.017l-0.11068-0.26515h-9.4967zm-7.1029 2.0695c-0.24179 0.01559-0.28572 0.25271-0.28572 0.65118v0.30269l1.7955 0.07557 1.7584-0.07557v-0.7128l-0.2499-0.09302c-0.13213-0.04912-0.42334 0.03674-0.99696 0.06012-0.90081 0.03674-1.3508-0.02685-1.7317-0.15578-0.0937-0.03176-0.17242-0.04888-0.23862-0.05235-0.01795-0.0011-0.03503-0.0011-0.05103 0zm17.821 1.1587c-0.48873 0.0015-0.9732 0.02141-1.4426 0.06518h3.3324c-0.62005-0.04036-1.2582-0.06743-1.8898-0.06518zm1.8898 0.06518c2.5231 0.16412 4.746 0.55171 5.004 0.11335 0.02555-0.04369 0.0435-0.07742 0.06297-0.11335zm-3.3324 0h-26.966c0.66567 1.1443 3.8831 7.058 6.7811 12.47 3.6892 6.8893 4.8596 9.0142 6.1992 11.255 1.7801 2.978 2.9505 4.4284 4.034 4.9994 0.2762 0.14556 0.56338 0.26448 0.63814 0.26448-4.1097-11.475-1.2013-21.494 5.8701-27.788 0.82354-0.73308 2.0676-1.0724 3.4434-1.2007z" fill="#ca054d"/>
    <g transform="matrix(.066864 0 0 .066864 -407.55 253.93)" fill="#810331">
     <path d="m6628.3-2837.6c5.475-21.395 6.9786-35.072 6.3828-58.062-0.3703-14.287-1.13-22.89-2.7244-30.856-6.1807-30.876-17.679-57.202-35.952-82.315-5.84-8.0258-5.9538-7.8572 7.9547-11.78 17.364-4.8973 27.851-6.2274 48.737-6.1813 21.985 0.049 32.793 1.7285 51.591 8.0188 47.452 15.878 90.156 57.687 107.8 105.54 1.6933 4.5925 4.3968 13.944 6.0078 20.782 2.7987 11.879 2.9303 13.604 2.9601 38.796 0.024 20.527-0.2687 26.55-1.3236 27.203-2.021 1.2502-59.121 2.2154-131.07 2.2154h-63.786z" color="#000000" color-rendering="auto" dominant-baseline="auto" fill="#a4d4b4" image-rendering="auto" shape-rendering="auto" solid-color="#000000" stop-color="#000000" style="font-feature-settings:normal;font-variant-alternates:normal;font-variant-caps:normal;font-variant-east-asian:normal;font-variant-ligatures:normal;font-variant-numeric:normal;font-variant-position:normal;font-variation-settings:normal;inline-size:0;isolation:auto;mix-blend-mode:normal;shape-margin:0;shape-padding:0;text-decoration-color:#000000;text-decoration-line:none;text-decoration-style:solid;text-indent:0;text-orientation:mixed;text-transform:none;white-space:normal"/>
    </g>
    <g transform="matrix(.071815 0 0 .071815 -439.49 267.7)" fill="#93bedf">
     <path d="m6412.9-2622.1c-3.8699-3.8699-4.4447-17.146-4.4447-102.67 0-72.628-10.345-86.264-12.854-88.773-2.3909-2.3909-9.3839 3.5308-44.71-4.4628l-48.911 3.0613-7.7322-33.1c-5.5565-23.786-5.9861-66.462-0.071-86.587 7.9268-26.971 23.888-53.757 43.77-73.458 63.086-62.51 159.19-64.274 222.82-4.0897 21.046 19.908 34.446 40.288 45.088 68.573 9.2646 24.624 10.558 71.933 2.6645 97.451l-4.9981 16.158-11.332 11.783-39.131 1.5715-3.5152 20.798c-2.9858 17.665-1.9167 39.821-2.1213 48.736-0.3456 15.053-0.9079 16.344-7.8833 18.095-12.286 3.0837-27.097 5.6861-27.097-28.707 0-31.023 4.3072-37.504-5.7927-37.504-2.8549 0-6.5497 5.7272-10.324 8.2003-10.441 6.8413-29.23 3.9308-39.426-3.6081-5.1185-3.7842-6.6186-8.2522-11.23-7.7203-7.3091 0.8432-5.4878 1.1242-6.6808 11.029-1.3073 10.854-0.7853 49.796-0.045 88.758 1.2705 66.885 1.9296 73.697-6.9986 76.955-6.4189 2.3425-14.133-0.4884-19.043-0.4884z" color="#000000" color-rendering="auto" dominant-baseline="auto" fill="#fff" image-rendering="auto" shape-rendering="auto" solid-color="#000000" stop-color="#000000" style="font-feature-settings:normal;font-variant-alternates:normal;font-variant-caps:normal;font-variant-east-asian:normal;font-variant-ligatures:normal;font-variant-numeric:normal;font-variant-position:normal;font-variation-settings:normal;inline-size:0;isolation:auto;mix-blend-mode:normal;shape-margin:0;shape-padding:0;text-decoration-color:#000000;text-decoration-line:none;text-decoration-style:solid;text-indent:0;text-orientation:mixed;text-transform:none;white-space:normal"/>
    </g>
    <path d="m42.963 37.9c-0.49265-0.02092-0.99407 0.17514-1.3469 0.56786l-5.1412 5.7219c-1.5173-0.74188-3.1673-1.1159-4.8213-1.1171v1.12e-4c-2.7024-0.0014-5.4145 0.9888-7.5719 2.9862-0.46531 0.43079-1.3302 1.4561-1.6729 1.9833-0.01225 0.01926-0.35135 0.09193-0.75301 0.16129-0.40176 0.06938-1.1148 0.2491-1.5843 0.39949-4.3112 1.381-7.5174 4.9873-8.4916 9.5508-0.15585 0.73021-0.19378 1.2055-0.19378 2.4239 0 1.5773 0.12044 2.4007 0.55217 3.7753l0.17764 0.56587-0.32019 0.28128c-0.17612 0.15464-0.39188 0.4427-0.47922 0.64033-0.22408 0.50648-0.29939 1.4206-0.17546 2.1322 0.29524 1.6952 1.0999 2.625 2.2772 2.6325 0.06719 0.12011 0.1132 0.20024 0.18805 0.33563 0.42004 0.75941 0.98381 1.7889 1.6344 2.9838 1.3013 2.3897 2.951 5.4424 4.4987 8.3327 3.6899 6.8908 4.8671 9.0291 6.2142 11.282 1.5086 2.0072 3.2518 4.4385 4.3566 5.2177 0.48041 0.33879 1.1098 0.32448 1.6497 0.09191 2.3327-1.0049 11.77-18.7 17.077-28.245l0.12174-0.01214c0.74595-0.0748 1.1449-0.3137 1.5303-0.91631 0.79046-1.2357 0.87069-3.2941 0.16462-4.2198-0.26897-0.35266-0.70973-0.64312-0.97684-0.64365-0.18474-1.12e-4 -0.18702-0.02155-0.14428-1.5032 0.05222-1.8082-0.08941-2.8395-0.60387-4.3919-0.63028-1.902-1.4865-3.322-2.8722-4.7636-0.99234-1.0323-1.9374-1.7613-3.1129-2.4011l-0.82104-0.44699-0.24282-0.7243c-0.22389-0.66868-0.51311-1.3161-0.85844-1.9283l5.2407-5.8327c0.62721-0.69808 0.5686-1.792-0.1295-2.4192l-2.2957-2.0628c-0.30542-0.27438-0.68886-0.42209-1.0724-0.43837zm-0.05171 1.2393c0.10557 0.0044 0.20679 0.04216 0.29561 0.12196l2.2958 2.0626c0.20296 0.18237 0.21817 0.46522 0.03597 0.66818l-5.0135 5.5798-0.99608 1.1085-1.2157 1.3529c-0.53773-0.03983-1.0934-0.07655-1.641-0.07026-1.8842 0.02166-3.2952 0.71795-3.768 0.96624-0.08574-0.07113-0.29126-0.21686-0.48699-0.36746l4.1697-4.6407 5.9519-6.624c0.1025-0.1141 0.23637-0.16355 0.37255-0.15776zm-11.241 5.3763c1.2834 0.01014 2.5661 0.2828 3.7792 0.81556l-4.4059 4.9035c-0.02037 0.02253-0.03882 0.0464-0.05539 0.07159-1.4889-1.0608-3.049-1.7304-4.8173-2.0717-0.5198-0.1003-1.1637-0.18228-1.4309-0.18228-0.26715 0-0.48565-0.03323-0.48565-0.0738 0-0.1395 1.3827-1.4113 1.9504-1.7939 1.6738-1.1282 3.5701-1.6838 5.4656-1.6689zm-8.0441 4.966c1.0229-0.0033 2.1426 0.10142 2.8846 0.29564 6.1704 1.6153 9.7555 8.1246 7.8135 14.187l-0.2718 0.84847h-1.5487c-0.85181 0-1.6136 0.02474-1.693 0.05526-0.371 0.14239-0.40437 0.42617-0.40721 3.395 0 0.423-0.0044 0.7023-0.0044 1.0113v0.53052c-0.01176 1.1525-0.04691 1.3556-0.15027 1.4833-0.31593 0.39005-0.73653 0.48482-1.1664 0.2625-0.35642-0.18429-0.43738-0.3786-0.45409-1.7458h-0.0044v-0.53118-0.32635-2.0087l-0.2709-0.27089c-0.2265-0.2265-0.31745-0.26168-0.55303-0.21455-0.15505 0.03108-0.36404 0.13113-0.46444 0.22272-0.4269 0.3893-0.77966 0.49892-1.609 0.49914-0.70851 1.09e-4 -0.84931-0.0274-1.2035-0.23642-0.22068-0.13017-0.49849-0.34073-0.61736-0.46799-0.28582-0.30597-0.78502-0.3188-1.059-0.02715l-0.19202 0.20439-0.01087 2.6243h-0.04021c0.02129 0 0.03838 0.11835 0.03838 0.26537 0 0.14701-0.017 0.26537-0.03838 0.26537h0.03838l-0.01144 2.7549-0.02416 5.9101-0.29121 0.25984c-0.33435 0.2986-0.75404 0.3434-1.0803 0.11489-0.4609-0.32254-0.4563-0.25463-0.4563-7.1912v-1.8485h0.03831c-0.02129 0-0.03831-0.11836-0.03831-0.26537 0-0.14702 0.01701-0.26537 0.03831-0.26537h-0.03832v-4.0716l-0.20614-0.194c-0.20438-0.19206-0.23856-0.19379-3.5958-0.19379h-3.3893l-0.28018-0.91385c-0.39228-1.2799-0.48755-1.9011-0.49318-3.2317-8e-3 -1.8033 0.31105-3.2627 1.0584-4.8429 0.55941-1.1828 1.119-1.9859 2.0657-2.9648 1.7129-1.771 3.616-2.7932 6.0553-3.2525 0.44162-0.08316 1.0206-0.12366 1.6344-0.12551zm16.564 0.3184c0.21154 0.39682 0.3787 0.74774 0.3787 0.82262 0 0.04331-0.35111-1e-3 -0.78018-0.0981-0.07064-0.01607-0.14003-0.03067-0.20969-0.0442zm-2.9807 1.9608c0.72134-0.0089 1.448 0.02846 1.9329 0.11512 2.3391 0.41801 4.2265 1.4326 5.9733 3.2112 1.7903 1.8228 2.802 3.8639 3.1274 6.3092 0.10661 0.80124 0.0785 3.117-0.04021 3.309-0.05102 0.08258-1.5312 0.10761-6.3381 0.10761h-6.2716l0.21341-0.77601c0.78224-2.8432 0.59725-5.7058-0.54487-8.4288-0.34524-0.82307-0.9867-1.9368-1.5111-2.6236-0.17266-0.22612-0.314-0.44366-0.314-0.48368 0-0.09324 0.90034-0.37096 1.8722-0.57736 0.46325-0.09841 1.1793-0.15368 1.9007-0.16262zm-17.405 0.59636a0.54032 0.54032 0 0 0-0.08109 0.0076s-0.42193 0.07845-0.98614 0.36745c-0.56421 0.28897-1.3156 0.79672-2.1104 1.6684-1.6311 1.789-1.9992 4.0789-1.9992 4.0789a0.54032 0.54032 0 0 0 0.44343 0.62199 0.54032 0.54032 0 0 0 0.62202-0.44258s0.3589-2.0239 1.7321-3.53c0.70737-0.77585 1.35-1.2017 1.8047-1.4347 0.45479-0.23296 0.67637-0.26471 0.67637-0.26471a0.54032 0.54032 0 0 0 0.44106-0.62398 0.54032 0.54032 0 0 0-0.5429-0.44832zm-7.1373 13.882h6.6833v2.942h-3.0724c-3.0329 0-3.0746-0.0027-3.2516-0.19245-0.38912-0.41768-0.62508-1.799-0.4278-2.5045zm19.164 0h17.824l0.11467 0.20041c0.06936 0.1214 0.11169 0.48719 0.10804 0.92647-5e-3 0.61636-0.04597 0.80459-0.26755 1.2482l-0.26096 0.52212-8.6993 0.02295c-4.7847 0.01248-8.7264-0.0044-8.7594-0.03708-0.03313-0.03288-0.05988-0.69498-0.05988-1.4714zm-7.6855 2.1541c0.03882-0.0063 0.09933 0.02231 0.1925 0.07227 0.506 0.27081 1.7923 0.29011 2.6565 0.03978 0.18497-0.05356 0.20065-0.02947 0.20065 0.30889v0.36679h-3.1204v-0.40104c0-0.26876 0.0057-0.37624 0.07068-0.38668zm-9.2046 2.214h4.4014l0.02699 4.034c0.02415 3.5781 0.04444 4.0707 0.17919 4.3577 0.22347 0.47588 0.56974 0.8521 1.0372 1.1269 0.35777 0.21034 0.51104 0.2435 1.1273 0.2435 0.61745 0 0.76929-0.03284 1.1302-0.24505 0.22928-0.1348 0.54122-0.39565 0.69334-0.57956 0.51851-0.62691 0.53891-0.8192 0.53891-5.0756v-3.8619h3.1203v0.33432c0 0.79999 0.83155 1.844 1.6462 2.0721 0.49398 0.13831 1.2322 0.08353 1.6649-0.1233 0.73114-0.34947 1.324-1.2154 1.324-1.934v-0.34911h7.6323c5.2437 0 6.9386 0.0096 7.4137 0.0694l0.1651-0.02385h0.45251c-0.99641 1.7914-3.014 5.5023-5.7226 10.535-1.9886 3.6946-3.9009 7.2344-4.2264 7.8225-2.7577 4.9822-4.4406 7.4301-5.4715 8.2684-0.12232 0.09947-0.37307 0.25784-0.59127 0.3701-0.23407 0.1616-0.39576 0.07486-0.61471-0.03933-0.84704-0.44634-2.0091-1.8025-3.7722-4.7519-1.3321-2.2284-2.4957-4.34-6.1841-11.228-1.5493-2.8933-3.1998-5.9481-4.5029-8.3411-0.58375-1.0721-1.0636-1.9473-1.468-2.6804zm28.103 2.619a0.65013 0.65013 0 0 0-0.54863 0.32503l-1.257 2.1771a0.65013 0.65013 0 0 0 0.23819 0.88757 0.65013 0.65013 0 0 0 0.88761-0.23797l1.2568-2.1771a0.65013 0.65013 0 0 0-0.238-0.8878 0.65013 0.65013 0 0 0-0.33893-0.08683zm-2.4444 4.2066a0.69243 0.69243 0 0 0-0.5964 0.34646l-5.0205 8.696a0.69243 0.69243 0 0 0 0.253 0.94635 0.69243 0.69243 0 0 0 0.94612-0.25321l5.0208-8.6968a0.69243 0.69243 0 0 0-0.25386-0.94614 0.69243 0.69243 0 0 0-0.34911-0.09257z" fill="#810331" stroke-width=".089152"/>
   </g>
   <g transform="matrix(.42758 0 0 .42758 -158.87 21.373)">
    <path d="m472.27 122.79-2.9393 5.091" color="#000000" color-rendering="auto" dominant-baseline="auto" fill="#b650a0" image-rendering="auto" shape-rendering="auto" solid-color="#000000" stop-color="#000000" style="font-feature-settings:normal;font-variant-alternates:normal;font-variant-caps:normal;font-variant-east-asian:normal;font-variant-ligatures:normal;font-variant-numeric:normal;font-variant-position:normal;font-variation-settings:normal;inline-size:0;isolation:auto;mix-blend-mode:normal;shape-margin:0;shape-padding:0;text-decoration-color:#000000;text-decoration-line:none;text-decoration-style:solid;text-indent:0;text-orientation:mixed;text-transform:none;white-space:normal"/>
   </g>
   <g transform="matrix(.42758 0 0 .42758 -158.87 21.373)">
    <path d="m466.53 132.73-11.743 20.339" color="#000000" color-rendering="auto" dominant-baseline="auto" fill="#b650a0" image-rendering="auto" shape-rendering="auto" solid-color="#000000" stop-color="#000000" style="font-feature-settings:normal;font-variant-alternates:normal;font-variant-caps:normal;font-variant-east-asian:normal;font-variant-ligatures:normal;font-variant-numeric:normal;font-variant-position:normal;font-variation-settings:normal;inline-size:0;isolation:auto;mix-blend-mode:normal;shape-margin:0;shape-padding:0;text-decoration-color:#000000;text-decoration-line:none;text-decoration-style:solid;text-indent:0;text-orientation:mixed;text-transform:none;white-space:normal"/>
   </g>
  </g>
 </g>
</svg>
