<?xml version="1.0" encoding="UTF-8" standalone="no"?>
<svg
   xmlns:dc="http://purl.org/dc/elements/1.1/"
   xmlns:cc="http://creativecommons.org/ns#"
   xmlns:rdf="http://www.w3.org/1999/02/22-rdf-syntax-ns#"
   xmlns:svg="http://www.w3.org/2000/svg"
   xmlns="http://www.w3.org/2000/svg"
   xmlns:xlink="http://www.w3.org/1999/xlink"
   xmlns:sodipodi="http://sodipodi.sourceforge.net/DTD/sodipodi-0.dtd"
   xmlns:inkscape="http://www.inkscape.org/namespaces/inkscape"
   width="14mm"
   height="14mm"
   viewBox="0 0 14 14"
   version="1.1"
   id="svg1256"
   sodipodi:docname="logo_TokenIceZombie.svg"
   inkscape:export-filename="token_ICeZombie.png"
   inkscape:export-xdpi="26.870001"
   inkscape:export-ydpi="26.870001"
   inkscape:version="1.0.1 (3bc2e813f5, 2020-09-07)">
  <defs
     id="defs1250">
    <linearGradient
       inkscape:collect="always"
       id="linearGradient872">
      <stop
         style="stop-color:#cd00cd;stop-opacity:1;"
         offset="0"
         id="stop868" />
      <stop
         style="stop-color:#1d9600;stop-opacity:1"
         offset="1"
         id="stop870" />
    </linearGradient>
    <linearGradient
       inkscape:collect="always"
       id="linearGradient864">
      <stop
         style="stop-color:#ff00ff;stop-opacity:1;"
         offset="0"
         id="stop860" />
      <stop
         style="stop-color:#06fd00;stop-opacity:1"
         offset="1"
         id="stop862" />
    </linearGradient>
    <linearGradient
       inkscape:collect="always"
       xlink:href="#linearGradient864"
       id="linearGradient866"
       x1="941.88916"
       y1="897.40881"
       x2="942.1217"
       y2="1351.8286"
       gradientUnits="userSpaceOnUse"
       gradientTransform="matrix(0.00583042,0,0,0.00583042,90.09589,-125.37316)" />
    <linearGradient
       inkscape:collect="always"
       xlink:href="#linearGradient872"
       id="linearGradient874"
       x1="872.69769"
       y1="881.07349"
       x2="869.25763"
       y2="1388.2993"
       gradientUnits="userSpaceOnUse"
       gradientTransform="matrix(0.00583042,0,0,0.00583042,90.09589,-125.37316)" />
  </defs>
  <sodipodi:namedview
     id="base"
     pagecolor="#ffffff"
     bordercolor="#666666"
     borderopacity="1.0"
     inkscape:pageopacity="0.0"
     inkscape:pageshadow="2"
     inkscape:zoom="3.959798"
     inkscape:cx="9.712831"
     inkscape:cy="-26.748228"
     inkscape:document-units="mm"
     inkscape:current-layer="g885"
     inkscape:document-rotation="0"
     showgrid="false"
     fit-margin-top="0"
     fit-margin-left="0"
     fit-margin-right="0"
     fit-margin-bottom="0"
     inkscape:window-width="1920"
     inkscape:window-height="1043"
     inkscape:window-x="1920"
     inkscape:window-y="0"
     inkscape:window-maximized="1"
     inkscape:pagecheckerboard="true" />
  <metadata
     id="metadata1253">
    <rdf:RDF>
      <cc:Work
         rdf:about="">
        <dc:format>image/svg+xml</dc:format>
        <dc:type
           rdf:resource="http://purl.org/dc/dcmitype/StillImage" />
        <dc:title></dc:title>
      </cc:Work>
    </rdf:RDF>
  </metadata>
  <g
     inkscape:label="Capa 1"
     inkscape:groupmode="layer"
     id="layer1"
     transform="translate(-80.39201,141.85799)">
    <path
       style="color:#000000;font-style:normal;font-variant:normal;font-weight:normal;font-stretch:normal;font-size:medium;line-height:normal;font-family:sans-serif;font-variant-ligatures:normal;font-variant-position:normal;font-variant-caps:normal;font-variant-numeric:normal;font-variant-alternates:normal;font-variant-east-asian:normal;font-feature-settings:normal;font-variation-settings:normal;text-indent:0;text-align:start;text-decoration:none;text-decoration-line:none;text-decoration-style:solid;text-decoration-color:#000000;letter-spacing:normal;word-spacing:normal;text-transform:none;writing-mode:lr-tb;direction:ltr;text-orientation:mixed;dominant-baseline:auto;baseline-shift:baseline;text-anchor:start;white-space:normal;shape-padding:0;shape-margin:0;inline-size:0;clip-rule:nonzero;display:inline;overflow:visible;visibility:visible;opacity:1;isolation:auto;mix-blend-mode:normal;color-interpolation:sRGB;color-interpolation-filters:linearRGB;solid-color:#000000;solid-opacity:1;vector-effect:none;fill:#ffffff;fill-opacity:1;fill-rule:nonzero;stroke:none;stroke-width:0.274444;stroke-linecap:round;stroke-linejoin:round;stroke-miterlimit:4;stroke-dasharray:none;stroke-dashoffset:0;stroke-opacity:1;color-rendering:auto;image-rendering:auto;shape-rendering:auto;text-rendering:auto;enable-background:accumulate;stop-color:#000000;stop-opacity:1"
       d="m 87.242948,-139.95712 c 2.726527,0 4.933884,2.20736 4.933884,4.93388 0,2.72653 -2.207357,4.93389 -4.933884,4.93389 -2.726526,0 -4.933883,-2.20736 -4.933883,-4.93389 0,-2.72652 2.207357,-4.93388 4.933883,-4.93388 z"
       id="path894-3-6"
       sodipodi:nodetypes="sssss" />
    <g
       id="g885"
       transform="matrix(1.0365485,0,0,1.0365485,-11.543761,-10.624572)">
      <path
         id="rect876-5-2"
         style="font-variation-settings:normal;opacity:1;vector-effect:none;fill:#34cb3a;fill-opacity:1;stroke:#299d4d;stroke-width:0.143963;stroke-linecap:butt;stroke-linejoin:round;stroke-miterlimit:4;stroke-dasharray:none;stroke-dashoffset:0;stroke-opacity:1;stop-color:#000000;stop-opacity:1"
         d="m 95.311312,-115.9892 c -0.268563,0.003 -0.543633,-0.15339 -0.53818,-0.59914 -7.21e-4,-0.64348 0.01231,-1.32402 0.01,-1.97003 0.01645,-6e-4 0.06724,-6e-4 0.14887,-6e-4 h 0.722192 c 0.08163,0 0.146684,-9e-5 0.146684,-9e-5 l 6.01e-4,1.96385 c 0.0032,0.32052 -0.221609,0.60307 -0.490172,0.60631 z"
         sodipodi:nodetypes="zccssccz" />
      <path
         id="rect876-5-3"
         style="font-variation-settings:normal;opacity:1;vector-effect:none;fill:url(#linearGradient866);fill-opacity:1;stroke:none;stroke-width:0.208341;stroke-linecap:butt;stroke-linejoin:round;stroke-miterlimit:4;stroke-dasharray:none;stroke-dashoffset:0;stroke-opacity:1;stop-color:#000000;stop-opacity:1"
         d="m 95.268001,-123.81874 c -1.152433,-6e-4 -2.290776,0.88281 -2.290776,1.96787 0,0.027 6.61e-4,0.0541 0.0019,0.081 v 2.68924 0.50249 c 0,0.005 7.2e-5,0.01 2.16e-4,0.0148 0,1e-5 0,0 0,0 1.45e-4,0.005 3.62e-4,0.01 6.62e-4,0.0147 0,1e-5 -10e-7,0 0,0 5.74e-4,0.01 0.0014,0.0195 0.0026,0.0291 10e-7,1e-5 0,0 0,0 0.0011,0.01 0.0025,0.0192 0.0042,0.0287 1e-6,1e-5 0,0 0,0 0.0017,0.01 0.0036,0.0189 0.0058,0.0282 0,0 -10e-7,0 0,0 0.0011,0.005 0.0023,0.009 0.0035,0.014 2e-6,1e-5 0,0 0,0 0.0025,0.009 0.0052,0.0184 0.0082,0.0274 2e-6,1e-5 -10e-7,0 0,0 0.003,0.009 0.0062,0.018 0.0097,0.0269 2e-6,0 -10e-7,0 0,0 0.01048,0.0266 0.02317,0.0523 0.0379,0.077 10e-7,0 -2e-6,0 0,0 0.0025,0.004 0.005,0.008 0.0075,0.0123 2e-6,1e-5 -2e-6,0 0,0 0.0051,0.008 0.01049,0.0161 0.01606,0.0239 2e-6,0 -2e-6,0 0,0 0.0028,0.004 0.0057,0.008 0.0085,0.0117 2e-6,0 -2e-6,0 0,0 0.0029,0.004 0.0058,0.008 0.0088,0.0115 10e-7,0 -2e-6,0 0,0 0.006,0.008 0.01219,0.0151 0.0186,0.0224 2e-6,1e-5 -3e-6,0 0,0 0.0032,0.004 0.0065,0.007 0.0098,0.0109 2e-6,0 -2e-6,0 0,0 0.0066,0.007 0.01341,0.0143 0.02039,0.0212 0.0035,0.004 0.007,0.007 0.01063,0.0103 0.01436,0.0135 0.02948,0.0265 0.04529,0.0388 0.01581,0.0123 0.03231,0.0239 0.04946,0.035 0.01286,0.008 0.02608,0.016 0.03964,0.0235 0.009,0.005 0.01822,0.01 0.02755,0.0143 4e-6,0 5e-6,0 1.1e-5,0 0.0093,0.005 0.0188,0.009 0.0284,0.0132 5e-6,0 6e-6,0 1.2e-5,0 0.0096,0.004 0.01935,0.008 0.02922,0.012 5e-6,1e-5 6e-6,0 1.2e-5,0 0.0049,0.002 0.0099,0.004 0.0149,0.005 4e-6,1e-5 5e-6,0 1.1e-5,0 0.01,0.004 0.02013,0.007 0.03037,0.0102 0.02049,0.006 0.04146,0.012 0.06285,0.0167 0.01604,0.004 0.03232,0.007 0.04881,0.009 0.01099,0.002 0.02207,0.003 0.03325,0.004 0.01078,10e-4 0.02165,0.002 0.03259,0.003 3.97e-4,0 7.82e-4,6e-5 0.0012,9e-5 4e-6,0 6e-6,0 1.2e-5,0 0.01701,10e-4 0.03421,0.002 0.05156,0.002 h 0.154518 c -0.0036,0.004 -0.0072,0.008 -0.01058,0.0122 -2e-6,1e-5 2e-6,0 0,0 -0.0034,0.004 -0.0067,0.009 -0.01,0.0142 -10e-7,0 2e-6,0 0,0 -0.0048,0.008 -0.0094,0.0158 -0.01374,0.0245 -10e-7,0 2e-6,0 0,0 -0.01302,0.0263 -0.02388,0.0572 -0.03244,0.0888 -0.0019,0.007 -0.0037,0.0141 -0.0054,0.0211 0,0 1e-6,0 0,0 -3.03e-4,0.001 -5.47e-4,0.002 -8.42e-4,0.004 -0.0029,0.0128 -0.0056,0.0256 -0.0078,0.0381 -0.0012,0.007 -0.0023,0.0136 -0.0032,0.0202 -9.62e-4,0.007 -0.0018,0.0131 -0.0026,0.0194 -0.0014,0.0126 -0.0025,0.0245 -0.0029,0.0353 -2.48e-4,0.005 -3.76e-4,0.0106 -3.76e-4,0.0154 0,0.005 1.69e-4,0.0114 5.01e-4,0.0171 10e-4,0.0171 0.0035,0.0342 0.0073,0.0512 0.0026,0.0114 0.0057,0.0227 0.0095,0.0339 0.0019,0.005 0.0039,0.0112 0.006,0.0167 2e-6,1e-5 -10e-7,0 0,0 0.0065,0.0166 0.0142,0.033 0.02307,0.0488 0.0089,0.0159 0.0189,0.0313 0.02997,0.0461 0.0074,0.01 0.01523,0.0194 0.02351,0.0287 0.02069,0.0231 0.04406,0.0442 0.06962,0.0624 0.0051,0.004 0.0103,0.007 0.01559,0.0106 0.03171,0.0204 0.06642,0.0366 0.103274,0.047 0.03071,0.009 0.0629,0.0134 0.09608,0.0134 0.03318,0 0.06537,-0.005 0.09608,-0.0134 0.0061,-0.002 0.01222,-0.004 0.01824,-0.005 0.01203,-0.004 0.02382,-0.009 0.03531,-0.0141 0.0058,-0.002 0.01143,-0.005 0.01703,-0.008 0.0112,-0.006 0.0221,-0.0121 0.03267,-0.0189 2e-6,0 1.1e-5,0 1.1e-5,0 0.01586,-0.0102 0.03095,-0.0215 0.04519,-0.0337 0.0095,-0.008 0.0186,-0.0167 0.02729,-0.0256 0.01305,-0.0134 0.02517,-0.0275 0.03623,-0.0423 2e-6,0 -2e-6,0 0,0 0.0037,-0.005 0.0073,-0.01 0.01072,-0.015 2e-6,-1e-5 -2e-6,0 0,0 0.0034,-0.005 0.0068,-0.0102 0.01,-0.0153 2e-6,-1e-5 -10e-7,0 0,0 0.0064,-0.0104 0.01235,-0.0209 0.01776,-0.0318 0.0027,-0.005 0.0053,-0.0108 0.0077,-0.0163 0.0024,-0.005 0.0048,-0.0109 0.0069,-0.0165 0.0022,-0.005 0.0041,-0.0111 0.006,-0.0167 0.0037,-0.0112 0.0069,-0.0225 0.0095,-0.0339 10e-7,-1e-5 -10e-7,0 0,0 0.0013,-0.005 0.0024,-0.0114 0.0034,-0.0171 0.0019,-0.0114 0.0032,-0.0228 0.0039,-0.0342 3.32e-4,-0.005 5.01e-4,-0.0114 5.01e-4,-0.0171 0,-0.01 -4.98e-4,-0.0206 -0.0015,-0.0324 -9.02e-4,-0.0111 -0.0023,-0.023 -0.0041,-0.0355 -0.0011,-0.007 -0.0022,-0.0149 -0.0035,-0.0225 -0.0085,-0.0479 -0.02267,-0.10052 -0.04218,-0.1429 -0.0028,-0.006 -0.0057,-0.0119 -0.0087,-0.0175 -0.0015,-0.003 -0.003,-0.005 -0.0046,-0.008 -0.0062,-0.0106 -0.01285,-0.0203 -0.0199,-0.0284 -0.0017,-0.002 -0.0035,-0.004 -0.0054,-0.006 h 1.796864 c 0.0026,0.004 0.0051,0.009 0.0074,0.014 0.0011,0.002 0.0022,0.005 0.0033,0.008 2e-6,0 0,0 0,0 0.0021,0.005 0.0041,0.0108 0.0058,0.0166 10e-7,0 -10e-7,0 0,0 9.02e-4,0.003 0.0017,0.006 0.0025,0.009 2e-6,0 0,0 0,0 7.82e-4,0.003 0.0016,0.006 0.0023,0.009 1.28e-4,5.5e-4 2.27e-4,0.001 3.55e-4,0.002 0.0018,0.008 0.0032,0.0161 0.0045,0.0245 1.4e-4,0.001 3.44e-4,0.002 4.79e-4,0.003 0,0 -1e-6,0 0,0 0.0028,0.0199 0.0041,0.0409 0.004,0.0616 0,0 0,0 0,0 -8.7e-5,0.0207 -0.0016,0.0411 -0.0044,0.06 -10e-7,1e-5 0,0 0,0 -9.63e-4,0.006 -0.002,0.0125 -0.0032,0.0183 -10e-7,0 0,0 0,0 -6.02e-4,0.003 -0.0013,0.006 -0.0019,0.009 -10e-7,0 1e-6,0 0,0 -0.002,0.009 -0.0045,0.0165 -0.0071,0.0237 -2e-6,1e-5 0,0 0,0 -9.02e-4,0.002 -0.0018,0.005 -0.0028,0.007 -0.0029,0.007 -0.0061,0.0128 -0.0096,0.018 -0.0015,0.002 -0.0034,0.005 -0.0057,0.008 -4e-6,0 0,0 0,0 -0.0023,0.003 -0.0049,0.006 -0.0079,0.01 -4e-6,0 0,0 0,0 -0.0076,0.01 -0.01745,0.0218 -0.0282,0.0357 -0.0018,0.002 -0.0035,0.005 -0.0055,0.007 -10e-7,0 2e-6,0 0,0 -0.0043,0.005 -0.0088,0.0117 -0.0133,0.0179 -2e-6,1e-5 2e-6,0 0,0 -0.0019,0.002 -0.0038,0.005 -0.0057,0.008 -0.01183,0.0166 -0.02396,0.0345 -0.0354,0.0537 -0.01107,0.0185 -0.02148,0.0379 -0.03029,0.0577 -0.0053,0.0118 -0.01,0.0239 -0.01392,0.0359 -0.0039,0.012 -0.0071,0.0241 -0.0092,0.0361 -7.22e-4,0.004 -0.0013,0.008 -0.0018,0.012 -0.001,0.008 -0.0015,0.0159 -0.0015,0.0237 0,0.0117 6.62e-4,0.0233 0.002,0.0348 0.0013,0.0115 0.0032,0.023 0.0058,0.0343 0.0013,0.005 0.0027,0.0113 0.0043,0.0168 0.0031,0.0112 0.0068,0.0222 0.01109,0.033 0.0043,0.0108 0.0091,0.0215 0.01442,0.0319 0.0054,0.0104 0.0112,0.0206 0.01755,0.0306 0.0064,0.01 0.01319,0.0196 0.02049,0.029 0.01459,0.0188 0.03101,0.0363 0.04901,0.0523 0.0045,0.004 0.0091,0.008 0.01379,0.0117 0.02816,0.0228 0.05973,0.042 0.09383,0.0564 0.0057,0.002 0.01143,0.005 0.01725,0.007 0.01164,0.004 0.02355,0.008 0.0357,0.0112 0.01214,0.003 0.02453,0.006 0.03711,0.008 0.01887,0.003 0.0382,0.004 0.05788,0.004 0.0067,0 0.0133,-1.6e-4 0.01989,-4.6e-4 0.0066,-3e-4 0.01314,-6e-4 0.01963,-0.001 0.03896,-0.004 0.07618,-0.0124 0.110745,-0.0256 0.0169,-0.007 0.03316,-0.0144 0.04868,-0.0235 0.0039,-0.002 0.0077,-0.005 0.01151,-0.007 0.01136,-0.007 0.0223,-0.0153 0.03275,-0.0238 0.007,-0.005 0.01374,-0.0117 0.02027,-0.0179 0.0065,-0.006 0.01284,-0.0126 0.01892,-0.0193 10e-7,0 -2e-6,0 0,0 0.003,-0.004 0.006,-0.007 0.0089,-0.0102 0.0029,-0.004 0.0058,-0.007 0.0086,-0.0105 0.0028,-0.004 0.0055,-0.007 0.0082,-0.0108 2e-6,0 -2e-6,0 0,0 0.0026,-0.004 0.0053,-0.007 0.0078,-0.011 2e-6,0 -2e-6,0 0,0 0.0025,-0.004 0.005,-0.007 0.0074,-0.0113 0.0024,-0.004 0.0048,-0.008 0.007,-0.0116 0.0023,-0.004 0.0045,-0.008 0.0066,-0.0117 10e-7,0 -2e-6,0 0,0 0.0021,-0.004 0.0041,-0.008 0.0062,-0.012 0.004,-0.008 0.0076,-0.0162 0.011,-0.0245 0.0017,-0.004 0.0033,-0.008 0.0048,-0.0125 0.0031,-0.008 0.0058,-0.0168 0.0082,-0.0253 0.0012,-0.004 0.0023,-0.009 0.0034,-0.0128 0.0021,-0.009 0.0038,-0.0172 0.0053,-0.0259 7.22e-4,-0.004 0.0013,-0.009 0.0019,-0.013 0.0016,-0.013 0.0025,-0.0261 0.0025,-0.0392 0,-0.0321 -0.0059,-0.0655 -0.01581,-0.0983 -0.0011,-0.004 -0.0022,-0.007 -0.0034,-0.0109 -0.0024,-0.007 -0.0049,-0.0144 -0.0077,-0.0215 -0.0027,-0.007 -0.0057,-0.0141 -0.0087,-0.021 -0.0091,-0.0208 -0.01953,-0.0406 -0.03064,-0.0589 -0.0037,-0.006 -0.0075,-0.012 -0.01133,-0.0177 -0.0038,-0.006 -0.0077,-0.0113 -0.01166,-0.0165 -0.01179,-0.0159 -0.02389,-0.0298 -0.03573,-0.041 -0.004,-0.004 -0.0079,-0.007 -0.01174,-0.0103 -0.01012,-0.01 -0.01836,-0.0203 -0.02497,-0.0317 -0.0016,-0.003 -0.0032,-0.006 -0.0046,-0.009 -0.0043,-0.009 -0.0078,-0.0181 -0.01044,-0.0276 -0.0017,-0.006 -0.0032,-0.0128 -0.0042,-0.0194 -0.0011,-0.007 -0.0018,-0.0132 -0.0022,-0.02 -6.62e-4,-0.01 -6.02e-4,-0.0203 0,-0.0305 4.2e-4,-0.007 0.0011,-0.0136 0.002,-0.0204 0.0014,-0.0102 0.0033,-0.0203 0.0057,-0.0302 0.0016,-0.007 0.0034,-0.0132 0.0053,-0.0196 0.0039,-0.0129 0.0085,-0.0253 0.01356,-0.037 0.0076,-0.0176 0.01627,-0.0335 0.02529,-0.0469 h 0.263292 c 0.01736,0 0.03456,-5.6e-4 0.05158,-0.002 0.01134,-6e-4 0.0226,-0.002 0.03378,-0.003 0.01118,-0.001 0.02227,-0.002 0.03326,-0.004 0.01649,-0.002 0.03277,-0.005 0.04881,-0.009 0.02141,-0.005 0.04234,-0.0103 0.06285,-0.0167 0.03074,-0.01 0.06041,-0.0211 0.08882,-0.0343 0.0142,-0.007 0.02809,-0.0136 0.04168,-0.0211 0.01353,-0.007 0.02676,-0.0153 0.03964,-0.0235 0.01714,-0.0109 0.03362,-0.0226 0.04944,-0.0349 0.01582,-0.0123 0.03092,-0.0253 0.04529,-0.0388 0.0036,-0.004 0.0072,-0.007 0.01065,-0.0103 0.03843,-0.038 0.07114,-0.0805 0.09689,-0.12638 0.0048,-0.008 0.0091,-0.0168 0.01335,-0.0254 0.01263,-0.0257 0.02316,-0.0524 0.0314,-0.0798 0,-1e-5 0,0 0,0 0.0096,-0.0321 0.01606,-0.0652 0.01901,-0.0992 0,-1e-5 0,0 0,0 0.0012,-0.0146 0.0018,-0.0293 0.0018,-0.0442 l -6.1e-5,-0.90667 -2.16e-4,-2.42517 c -0.01101,-0.98682 -1.100914,-1.87842 -2.268541,-1.90777 -0.0183,-4.7e-4 -0.03659,-6e-4 -0.05489,-6e-4 z" />
      <path
         id="path1012-9"
         style="color:#000000;font-style:normal;font-variant:normal;font-weight:normal;font-stretch:normal;font-size:medium;line-height:normal;font-family:sans-serif;font-variant-ligatures:normal;font-variant-position:normal;font-variant-caps:normal;font-variant-numeric:normal;font-variant-alternates:normal;font-variant-east-asian:normal;font-feature-settings:normal;font-variation-settings:normal;text-indent:0;text-align:start;text-decoration:none;text-decoration-line:none;text-decoration-style:solid;text-decoration-color:#000000;letter-spacing:normal;word-spacing:normal;text-transform:none;writing-mode:lr-tb;direction:ltr;text-orientation:mixed;dominant-baseline:auto;baseline-shift:baseline;text-anchor:start;white-space:normal;shape-padding:0;shape-margin:0;inline-size:0;clip-rule:nonzero;display:inline;overflow:visible;visibility:visible;opacity:1;isolation:auto;mix-blend-mode:normal;color-interpolation:sRGB;color-interpolation-filters:linearRGB;solid-color:#000000;solid-opacity:1;vector-effect:none;fill:url(#linearGradient874);fill-opacity:1;fill-rule:nonzero;stroke:none;stroke-width:0.202226;stroke-linecap:round;stroke-linejoin:miter;stroke-miterlimit:4;stroke-dasharray:none;stroke-dashoffset:0;stroke-opacity:1;color-rendering:auto;image-rendering:auto;shape-rendering:auto;text-rendering:auto;enable-background:accumulate;stop-color:#000000;stop-opacity:1"
         d="m 95.268047,-123.92293 c -0.0029,10e-6 -0.0058,1.3e-4 -0.0088,3.9e-4 -0.599834,0.002 -1.190133,0.23022 -1.635411,0.60048 -0.447458,0.37208 -0.750827,0.89222 -0.750827,1.47119 0,0.027 7.22e-4,0.0541 0.0019,0.081 v 2.91613 l 0.208358,-0.0179 v -2.89824 c -3e-6,-0.002 -4.7e-5,-0.003 -1.25e-4,-0.005 -0.0012,-0.0254 -0.0018,-0.0508 -0.0018,-0.0761 10e-7,-0.5061 0.26586,-0.9702 0.675681,-1.31098 0.409821,-0.34078 0.961281,-0.55307 1.510854,-0.55272 0.01743,1e-5 0.03487,2.5e-4 0.05234,6e-4 0.558137,0.014 1.102137,0.23581 1.503931,0.57076 0.345319,0.28786 0.580571,0.65633 0.643448,1.04341 l 0.01985,2.85039 0.208366,-0.0179 -0.0172,-2.85061 c -0.06862,-0.45234 -0.340611,-0.86816 -0.72109,-1.18535 -0.437817,-0.36497 -1.022575,-0.60366 -1.632064,-0.61899 -0.01912,-4.8e-4 -0.0383,-6e-4 -0.05746,-6e-4 z m -0.06286,1.04162 c -0.06339,-1e-5 -0.114785,0.0343 -0.114764,0.0767 v 4.07812 c 1.2e-5,0.0423 0.0514,0.0766 0.114764,0.0766 0.06335,0 0.114696,-0.0343 0.114707,-0.0766 v -4.07812 c 2.4e-5,-0.0423 -0.05133,-0.0767 -0.114707,-0.0767 z m 1.295099,-0.0879 c -0.0051,-2e-5 -0.01012,2.1e-4 -0.01514,6.1e-4 -0.06286,0.006 -0.107435,0.0506 -0.09956,0.0995 0,0 0.0069,0.0431 0.02292,0.0932 0.01522,0.0475 0.02684,0.1022 0.09094,0.15275 8.42e-4,10e-4 0.0017,0.002 0.0024,0.004 0.0037,0.009 0.0083,0.0239 0.01128,0.0419 0.0059,0.036 0.0052,0.0834 -0.0071,0.12531 -0.01237,0.0419 -0.03519,0.0764 -0.06723,0.0987 -0.03204,0.0222 -0.07502,0.0382 -0.160144,0.0352 -0.118917,-0.004 -0.165059,-0.0283 -0.189647,-0.0526 -0.02459,-0.0242 -0.03556,-0.0623 -0.03058,-0.1131 0.01,-0.10152 0.08546,-0.22356 0.104322,-0.25323 0.04376,-0.0688 0.04551,-0.13281 0.04551,-0.13281 6.61e-4,-0.0492 -0.05011,-0.0895 -0.113465,-0.0901 -0.06335,-5.3e-4 -0.115264,0.0389 -0.11596,0.0881 0,0 5.13e-4,0.0207 -0.02184,0.0558 -0.01419,0.0223 -0.112252,0.16428 -0.127404,0.31861 -0.0076,0.0772 0.006,0.16491 0.07925,0.23701 0.07323,0.0721 0.198133,0.11465 0.359664,0.12021 0.132388,0.005 0.245464,-0.0265 0.323133,-0.0803 0.07767,-0.0539 0.118173,-0.12455 0.138018,-0.19172 0.01984,-0.0672 0.0202,-0.13247 0.01113,-0.18774 -0.0045,-0.0277 -0.01132,-0.0527 -0.02121,-0.0757 -0.0099,-0.023 -0.01658,-0.0438 -0.05378,-0.0705 0.01012,0.007 -0.02225,-0.0345 -0.03455,-0.0729 -0.01231,-0.0384 -0.01792,-0.0723 -0.01792,-0.0723 -0.0071,-0.0443 -0.05542,-0.0777 -0.112953,-0.0781 z m -2.642333,0.2305 c -0.0587,6e-4 -0.10731,0.0356 -0.112634,0.081 0,0 -0.0014,0.0116 -0.0035,0.0251 -0.0019,0.012 -0.0055,0.0244 -0.0045,0.0228 -0.0029,0.004 -0.0069,0.0105 -0.01191,0.0184 -0.01084,0.017 -0.02544,0.0405 -0.04079,0.0686 -0.0307,0.0561 -0.06513,0.13013 -0.0793,0.21128 -0.01417,0.0812 -0.0087,0.1741 0.06007,0.25477 0.06881,0.0807 0.196658,0.13397 0.368068,0.14712 0.174365,0.0134 0.317707,-0.0295 0.395012,-0.10998 0.0773,-0.0805 0.08876,-0.17768 0.08282,-0.26657 -0.01187,-0.17779 -0.103764,-0.34664 -0.103764,-0.34664 -0.02394,-0.0455 -0.09088,-0.0674 -0.14953,-0.0488 -0.05867,0.0186 -0.08682,0.0706 -0.06286,0.11619 0,0 0.07807,0.15445 0.08702,0.28852 0.0045,0.067 -0.01094,0.12294 -0.03767,0.15078 -0.02673,0.0279 -0.06457,0.0487 -0.188453,0.0392 -0.126838,-0.01 -0.17386,-0.0383 -0.199351,-0.0682 -0.02549,-0.0299 -0.03377,-0.0761 -0.02394,-0.13241 0.0098,-0.0563 0.03712,-0.11802 0.06308,-0.16549 0.01298,-0.0238 0.02547,-0.044 0.03507,-0.059 0.0048,-0.008 0.0088,-0.0136 0.01214,-0.0188 0.0033,-0.005 0.0019,0.004 0.01253,-0.0223 0.01042,-0.0256 0.0112,-0.0406 0.01389,-0.0574 0.0027,-0.0168 0.0044,-0.031 0.0044,-0.031 0.0058,-0.049 -0.04075,-0.0924 -0.103867,-0.0969 -0.0032,-2.2e-4 -0.0065,-3.3e-4 -0.0097,-3.5e-4 -7.82e-4,0 -0.0015,0 -0.0023,0 z m 2.638757,0.11286 c 5.9e-5,-1.5e-4 0.0012,6e-4 0.0025,0.002 -0.0018,-0.002 -0.0025,-0.002 -0.0025,-0.002 z m 1.199131,3.35862 -0.208366,0.0179 5.4e-5,0.67123 c 0,0.2518 -0.24182,0.46823 -0.564206,0.46823 h -0.263268 c -0.03467,0 -0.06706,0.0173 -0.08642,0.046 -0.03496,0.052 -0.06083,0.11698 -0.0683,0.19177 -0.0075,0.0748 0.0078,0.16747 0.0776,0.23389 0.0021,0.002 0.0043,0.004 0.0066,0.006 0.01172,0.009 0.0424,0.0462 0.06344,0.0888 0.02105,0.0426 0.03434,0.0918 0.03434,0.12594 0,0.0919 -0.0723,0.20169 -0.16291,0.23637 -0.03422,0.0131 -0.07233,0.0205 -0.112976,0.0205 -0.152184,0 -0.27593,-0.13375 -0.275932,-0.25691 10e-7,-0.0251 0.02178,-0.0814 0.05354,-0.13036 0.03176,-0.049 0.06162,-0.0808 0.08561,-0.11454 4.19e-4,-5.9e-4 8.42e-4,-0.001 0.0013,-0.002 0.04409,-0.0648 0.04679,-0.12624 0.04709,-0.19398 2.97e-4,-0.0677 -0.0057,-0.13581 -0.0461,-0.20181 -0.01894,-0.0309 -0.05256,-0.0497 -0.08879,-0.0497 h -1.796911 c -0.09227,0 -0.13897,0.11113 -0.07442,0.17706 0.0036,0.004 0.02774,0.0467 0.04059,0.0941 0.01285,0.0475 0.01954,0.10175 0.01954,0.12615 -2e-6,0.1161 -0.131419,0.27172 -0.28027,0.27171 -0.148846,0 -0.28028,-0.15562 -0.280282,-0.27171 10e-7,-0.0244 0.0067,-0.0787 0.01959,-0.12615 0.01285,-0.0475 0.03697,-0.0904 0.04059,-0.0941 0.06457,-0.0659 0.01783,-0.17708 -0.07446,-0.17706 h -0.154506 c -0.322384,0 -0.564163,-0.21643 -0.564163,-0.46823 v -0.29348 l -0.208358,0.0179 v 0.2756 c 0,0.37938 0.349058,0.67117 0.762921,0.67572 -8.42e-4,0.003 -0.0023,0.006 -0.0031,0.009 -0.01758,0.0649 -0.02677,0.12762 -0.02677,0.18059 4e-6,0.24756 0.21281,0.48006 0.488594,0.48006 0.27579,0 0.488612,-0.23249 0.488617,-0.48006 1e-6,-0.053 -0.0092,-0.11564 -0.02676,-0.18059 -7.82e-4,-0.003 -0.002,-0.005 -0.0028,-0.008 h 1.551918 c 0.0032,0.0165 0.0072,0.0227 0.0071,0.0423 -1.75e-4,0.0398 -0.01555,0.0816 -0.01206,0.0789 -0.0037,0.004 -0.0486,0.0577 -0.08836,0.11901 -0.04155,0.0641 -0.0871,0.14378 -0.0871,0.24374 2e-6,0.24988 0.216576,0.46521 0.484233,0.46521 0.06609,0 0.129558,-0.0122 0.187519,-0.0343 0.179777,-0.0688 0.296757,-0.24456 0.296758,-0.43091 10e-7,-0.0798 -0.02405,-0.15372 -0.0559,-0.21821 -0.03066,-0.0621 -0.0668,-0.11458 -0.114205,-0.15436 -0.01044,-0.0107 -0.01614,-0.0281 -0.01285,-0.0611 0.0016,-0.016 0.0066,-0.0337 0.01243,-0.0502 h 0.198234 c 0.418146,0 0.772585,-0.29417 0.772567,-0.67655 z m -1.174431,-2.61467 c -0.06337,1e-5 -0.114725,0.03 -0.114707,0.067 v 3.18772 c 0,0.037 0.05137,0.067 0.114707,0.067 0.06337,0 0.11475,-0.0299 0.114764,-0.067 v -3.18772 c 0,-0.037 -0.05137,-0.067 -0.114764,-0.067 z m -2.53685,0.34928 c -0.06338,-1e-5 -0.114761,0.03 -0.114764,0.067 v 2.80627 c 1.2e-5,0.037 0.05139,0.067 0.114764,0.067 0.06334,0 0.114693,-0.03 0.114707,-0.067 v -2.80627 c -3e-6,-0.037 -0.05135,-0.067 -0.114707,-0.067 z"
         sodipodi:nodetypes="ccsscccccssccsccccsscccccccccccsccsssssscccccssssssscsccscccssssssscccsssssssscsccccscscccsccsccssssssccscccssssssccssccscccsssccscscsssccscsscccccccccccccccc" />
    </g>
    <path
       style="color:#000000;font-style:normal;font-variant:normal;font-weight:normal;font-stretch:normal;font-size:medium;line-height:normal;font-family:sans-serif;font-variant-ligatures:normal;font-variant-position:normal;font-variant-caps:normal;font-variant-numeric:normal;font-variant-alternates:normal;font-variant-east-asian:normal;font-feature-settings:normal;font-variation-settings:normal;text-indent:0;text-align:start;text-decoration:none;text-decoration-line:none;text-decoration-style:solid;text-decoration-color:#000000;letter-spacing:normal;word-spacing:normal;text-transform:none;writing-mode:lr-tb;direction:ltr;text-orientation:mixed;dominant-baseline:auto;baseline-shift:baseline;text-anchor:start;white-space:normal;shape-padding:0;shape-margin:0;inline-size:0;clip-rule:nonzero;display:inline;overflow:visible;visibility:visible;opacity:1;isolation:auto;mix-blend-mode:normal;color-interpolation:sRGB;color-interpolation-filters:linearRGB;solid-color:#000000;solid-opacity:1;vector-effect:none;fill:#cd00cd;fill-opacity:1;fill-rule:nonzero;stroke:none;stroke-width:0.274444;stroke-linecap:round;stroke-linejoin:round;stroke-miterlimit:4;stroke-dasharray:none;stroke-dashoffset:0;stroke-opacity:1;color-rendering:auto;image-rendering:auto;shape-rendering:auto;text-rendering:auto;enable-background:accumulate;stop-color:#000000;stop-opacity:1"
       d="m 87.242948,-140.23154 c -2.874847,0 -5.208303,2.33345 -5.208303,5.2083 0,2.87485 2.333456,5.20831 5.208303,5.20831 2.874847,0 5.208304,-2.33346 5.208304,-5.20831 0,-2.87485 -2.333457,-5.2083 -5.208304,-5.2083 z m 0,0.27442 c 2.726527,0 4.933884,2.20736 4.933884,4.93388 0,2.72653 -2.207357,4.93389 -4.933884,4.93389 -2.726526,0 -4.933883,-2.20736 -4.933883,-4.93389 0,-2.72652 2.207357,-4.93388 4.933883,-4.93388 z"
       id="path894" />
    <g
       id="g1589"
       transform="matrix(0.39272344,0,0,0.39272344,-19.7132,-3.7668324)">
      <circle
         cx="278.40231"
         cy="-328.21567"
         fill="none"
         stroke="#000000"
         stroke-width="0.464097"
         id="circle1575"
         r="6.9614544"
         style="fill:#ffffff;fill-opacity:1;stroke:#ff0000;stroke-opacity:1" />
      <path
         d="m 278.40231,-332.85661 v 9.28195 m -4.64098,-4.64097 h 9.28194"
         stroke="#ff0000"
         stroke-width="3.71278"
         id="path1577" />
    </g>
  </g>
</svg>
