<?xml version="1.0" encoding="UTF-8" standalone="no"?>
<svg
   xmlns:dc="http://purl.org/dc/elements/1.1/"
   xmlns:cc="http://creativecommons.org/ns#"
   xmlns:rdf="http://www.w3.org/1999/02/22-rdf-syntax-ns#"
   xmlns:svg="http://www.w3.org/2000/svg"
   xmlns="http://www.w3.org/2000/svg"
   xmlns:sodipodi="http://sodipodi.sourceforge.net/DTD/sodipodi-0.dtd"
   xmlns:inkscape="http://www.inkscape.org/namespaces/inkscape"
   width="13.826382mm"
   height="13.826382mm"
   viewBox="0 0 13.826382 13.826382"
   version="1.1"
   id="svg4615"
   inkscape:version="1.0.1 (3bc2e813f5, 2020-09-07)"
   sodipodi:docname="twitter.svg"
   inkscape:export-filename="logo.png"
   inkscape:export-xdpi="206.375"
   inkscape:export-ydpi="206.375">
  <defs
     id="defs4609">
    <clipPath
       clipPathUnits="userSpaceOnUse"
       id="clipPath3201-4">
      <rect
         style="opacity:1;fill:#ffffff;fill-opacity:1;stroke:none;stroke-width:3.20266;stroke-linecap:round;stroke-linejoin:round;stroke-miterlimit:4;stroke-dasharray:none;stroke-opacity:1"
         id="rect3203-9"
         width="172.32408"
         height="55.008789"
         x="433.53275"
         y="-103.58672"
         transform="matrix(1,0,0.46622809,0.88466455,0,0)" />
    </clipPath>
    <clipPath
       clipPathUnits="userSpaceOnUse"
       id="clipPath3205-2">
      <rect
         style="opacity:1;fill:#ffffff;fill-opacity:1;stroke:none;stroke-width:3.20266;stroke-linecap:round;stroke-linejoin:round;stroke-miterlimit:4;stroke-dasharray:none;stroke-opacity:1"
         id="rect3207-06"
         width="172.32405"
         height="55.008789"
         x="433.53275"
         y="-103.58672"
         transform="matrix(1,0,0.46622809,0.88466455,0,0)" />
    </clipPath>
    <clipPath
       clipPathUnits="userSpaceOnUse"
       id="clipPath3201-8-3-6">
      <rect
         style="opacity:1;fill:#ffffff;fill-opacity:1;stroke:none;stroke-width:3.20266;stroke-linecap:round;stroke-linejoin:round;stroke-miterlimit:4;stroke-dasharray:none;stroke-opacity:1"
         id="rect3203-4-6-1"
         width="172.32408"
         height="55.008789"
         x="433.53275"
         y="-103.58672"
         transform="matrix(1,0,0.46622809,0.88466455,0,0)" />
    </clipPath>
    <clipPath
       clipPathUnits="userSpaceOnUse"
       id="clipPath3205-5-5-1">
      <rect
         style="opacity:1;fill:#ffffff;fill-opacity:1;stroke:none;stroke-width:3.20266;stroke-linecap:round;stroke-linejoin:round;stroke-miterlimit:4;stroke-dasharray:none;stroke-opacity:1"
         id="rect3207-0-6-5"
         width="172.32405"
         height="55.008789"
         x="433.53275"
         y="-103.58672"
         transform="matrix(1,0,0.46622809,0.88466455,0,0)" />
    </clipPath>
  </defs>
  <sodipodi:namedview
     id="base"
     pagecolor="#ffffff"
     bordercolor="#666666"
     borderopacity="1.0"
     inkscape:pageopacity="0.0"
     inkscape:pageshadow="2"
     inkscape:zoom="2.8"
     inkscape:cx="91.658002"
     inkscape:cy="23.725372"
     inkscape:document-units="mm"
     inkscape:current-layer="layer1"
     inkscape:document-rotation="0"
     showgrid="false"
     fit-margin-top="0"
     fit-margin-left="0"
     fit-margin-right="0"
     fit-margin-bottom="0"
     inkscape:window-width="1920"
     inkscape:window-height="1016"
     inkscape:window-x="0"
     inkscape:window-y="27"
     inkscape:window-maximized="1"
     inkscape:snap-global="false"
     showguides="false" />
  <metadata
     id="metadata4612">
    <rdf:RDF>
      <cc:Work
         rdf:about="">
        <dc:format>image/svg+xml</dc:format>
        <dc:type
           rdf:resource="http://purl.org/dc/dcmitype/StillImage" />
        <dc:title></dc:title>
      </cc:Work>
    </rdf:RDF>
  </metadata>
  <g
     inkscape:label="Capa 1"
     inkscape:groupmode="layer"
     id="layer1"
     transform="translate(89.228819,-30.7125)">
    <circle
       style="fill:#ffc2ff;fill-opacity:1;stroke:none;stroke-width:1.91192;stroke-linecap:round;stroke-linejoin:round;stroke-miterlimit:4;stroke-dasharray:none;stroke-dashoffset:5.18173;stroke-opacity:1"
       id="path25286"
       cx="-82.315628"
       cy="37.62569"
       r="6.9131908" />
    <path
       style="color:#000000;font-style:normal;font-variant:normal;font-weight:normal;font-stretch:normal;font-size:medium;line-height:normal;font-family:sans-serif;font-variant-ligatures:normal;font-variant-position:normal;font-variant-caps:normal;font-variant-numeric:normal;font-variant-alternates:normal;font-variant-east-asian:normal;font-feature-settings:normal;font-variation-settings:normal;text-indent:0;text-align:start;text-decoration:none;text-decoration-line:none;text-decoration-style:solid;text-decoration-color:#000000;letter-spacing:normal;word-spacing:normal;text-transform:none;writing-mode:lr-tb;direction:ltr;text-orientation:mixed;dominant-baseline:auto;baseline-shift:baseline;text-anchor:start;white-space:normal;shape-padding:0;shape-margin:0;inline-size:0;clip-rule:nonzero;display:inline;overflow:visible;visibility:visible;isolation:auto;mix-blend-mode:normal;color-interpolation:sRGB;color-interpolation-filters:linearRGB;solid-color:#000000;solid-opacity:1;vector-effect:none;fill:#ffffff;fill-opacity:1;fill-rule:evenodd;stroke:none;stroke-width:0.258507;stroke-linecap:butt;stroke-linejoin:miter;stroke-miterlimit:4;stroke-dasharray:none;stroke-dashoffset:0;stroke-opacity:1;color-rendering:auto;image-rendering:auto;shape-rendering:auto;text-rendering:auto;enable-background:accumulate;stop-color:#000000"
       d="m -82.243604,31.764863 c -3.210809,0 -5.815857,2.607925 -5.815847,5.818787 -1e-5,3.210717 2.605038,5.815741 5.815847,5.815741 3.21081,0 5.818688,-2.605024 5.818672,-5.815741 1.6e-5,-3.210862 -2.607862,-5.818787 -5.818672,-5.818787 z m 0,0.260391 c 3.071098,0 5.558314,2.487221 5.558303,5.558396 1.1e-5,3.07103 -2.487205,5.55535 -5.558303,5.55535 -3.071103,0 -5.558318,-2.48432 -5.558308,-5.55535 -1e-5,-3.071175 2.487205,-5.558396 5.558308,-5.558396 z"
       id="path9314-9" />
    <path
       d="m -78.753757,35.874391 c 0.34119,-0.215318 0.602991,-0.556706 0.725855,-0.963441 -0.319451,0.199814 -0.672455,0.344428 -1.049089,0.422674 -0.300549,-0.33892 -0.730109,-0.550191 -1.205507,-0.550191 -0.912046,0 -1.651135,0.780001 -1.651135,1.741856 0,0.136204 0.01377,0.269657 0.04205,0.396739 -1.372323,-0.07245 -2.589172,-0.765509 -3.404342,-1.820102 -0.142235,0.258067 -0.223521,0.557147 -0.223521,0.876074 0,0.604088 0.291571,1.137472 0.734834,1.450457 -0.270778,-0.01448 -0.525491,-0.08839 -0.748539,-0.217786 v 0.02174 c 0,0.844197 0.568964,1.548413 1.325537,1.707946 -0.13893,0.04057 -0.284481,0.06085 -0.435701,0.06085 -0.106333,0 -0.210292,-0.01448 -0.310475,-0.03043 0.209818,0.691758 0.819896,1.196153 1.542919,1.209631 -0.565658,0.46745 -1.277812,0.745662 -2.051397,0.745662 -0.133265,0 -0.265107,-0.01449 -0.394116,-0.02463 0.731054,0.493964 1.599153,0.782606 2.53199,0.782606 3.03858,0 4.699164,-2.654586 4.699164,-4.956623 0,-0.07535 -9.6e-4,-0.151129 -0.0042,-0.225322 0.32276,-0.245748 0.603464,-0.552797 0.824151,-0.902147 -0.296298,0.139099 -0.614805,0.23227 -0.948435,0.274151 z"
       id="path7469-4"
       fill="#000000"
       style="fill:#850085;fill-opacity:1;fill-rule:evenodd;stroke:none;stroke-width:0.383383" />
  </g>
</svg>
