<?xml version="1.0" encoding="UTF-8" standalone="no"?>
<svg
   xmlns:dc="http://purl.org/dc/elements/1.1/"
   xmlns:cc="http://creativecommons.org/ns#"
   xmlns:rdf="http://www.w3.org/1999/02/22-rdf-syntax-ns#"
   xmlns:svg="http://www.w3.org/2000/svg"
   xmlns="http://www.w3.org/2000/svg"
   xmlns:xlink="http://www.w3.org/1999/xlink"
   xmlns:sodipodi="http://sodipodi.sourceforge.net/DTD/sodipodi-0.dtd"
   xmlns:inkscape="http://www.inkscape.org/namespaces/inkscape"
   width="128mm"
   height="128mm"
   version="1.1"
   viewBox="0 0 128 128"
   id="svg29"
   sodipodi:docname="05_Vaults.svg"
   inkscape:version="1.0.1 (3bc2e813f5, 2020-09-07)">
  <sodipodi:namedview
     pagecolor="#ffffff"
     bordercolor="#666666"
     borderopacity="1"
     objecttolerance="10"
     gridtolerance="10"
     guidetolerance="10"
     inkscape:pageopacity="0"
     inkscape:pageshadow="2"
     inkscape:window-width="1920"
     inkscape:window-height="1016"
     id="namedview31"
     showgrid="false"
     inkscape:zoom="0.64677138"
     inkscape:cx="73.267077"
     inkscape:cy="398.41649"
     inkscape:window-x="0"
     inkscape:window-y="27"
     inkscape:window-maximized="1"
     inkscape:current-layer="svg29" />
  <defs
     id="defs7">
    <radialGradient
       id="radialGradient959-5-8-5-6"
       cx="253.12"
       cy="-94.575"
       r="77.981"
       gradientTransform="matrix(.099153 -.10206 .68446 .66495 -110.42 126.92)"
       gradientUnits="userSpaceOnUse">
      <stop
         stop-color="#fff"
         offset="0"
         id="stop2" />
      <stop
         stop-color="#fff"
         stop-opacity="0"
         offset="1"
         id="stop4" />
    </radialGradient>
    <radialGradient
       inkscape:collect="always"
       xlink:href="#linearGradient957"
       id="radialGradient959-5-8-5-9"
       cx="253.12183"
       cy="-94.574562"
       fx="253.12183"
       fy="-94.574562"
       r="77.981499"
       gradientTransform="matrix(0.09992245,-0.10285419,0.68977373,0.67011256,160.83957,117.66316)"
       gradientUnits="userSpaceOnUse" />
    <linearGradient
       inkscape:collect="always"
       id="linearGradient957">
      <stop
         style="stop-color:#ffffff;stop-opacity:1;"
         offset="0"
         id="stop953" />
      <stop
         style="stop-color:#ffffff;stop-opacity:0;"
         offset="1"
         id="stop955" />
    </linearGradient>
    <rect
       x="31.460493"
       y="137.55051"
       width="61.281033"
       height="18.942507"
       id="rect1013-0-2-6-0-3-2" />
    <rect
       x="31.460493"
       y="137.55051"
       width="61.281033"
       height="18.942507"
       id="rect1299" />
  </defs>
  <metadata
     id="metadata9">
    <rdf:RDF>
      <cc:Work
         rdf:about="">
        <dc:format>image/svg+xml</dc:format>
        <dc:type
           rdf:resource="http://purl.org/dc/dcmitype/StillImage" />
        <dc:title></dc:title>
      </cc:Work>
    </rdf:RDF>
  </metadata>
  <rect
     style="display:inline;fill:#ffddff;fill-opacity:1;stroke:none;stroke-width:5.96313;stroke-miterlimit:4;stroke-dasharray:none;stroke-opacity:1"
     id="rect877-6-61-1-3"
     width="119.35799"
     height="104.47971"
     x="4.2956724"
     y="11.492388"
     rx="17.289509"
     ry="17.289509" />
  <g
     id="g1278"
     transform="matrix(1.7506301,0,0,1.7506301,-509.53005,-146.70013)"
     style="display:inline;opacity:0.94848">
    <g
       id="g1000"
       transform="matrix(0.81390736,0,0,0.81390736,97.496548,62.332064)">
      <path
         style="fill:#d3b6e4;fill-opacity:1;stroke:#d3b6e4;stroke-width:0.665;stroke-linecap:butt;stroke-linejoin:miter;stroke-miterlimit:4;stroke-dasharray:none;stroke-opacity:1"
         d="m 254.66503,51.214508 11.54276,3.326032 v 37.714012 l -11.57024,-3.333951 z"
         id="path971" />
      <path
         style="fill:#e3c5ff;fill-opacity:1;stroke:#d3b6e4;stroke-width:0.665;stroke-linecap:butt;stroke-linejoin:miter;stroke-miterlimit:4;stroke-dasharray:none;stroke-opacity:1"
         d="m 266.12551,54.520692 37.0406,-2.942257 v 35.720462 l -37.00205,4.866631 z"
         id="path973" />
      <path
         style="fill:#edddfc;fill-opacity:1;stroke:#d3b6e4;stroke-width:0.151139px;stroke-linecap:butt;stroke-linejoin:miter;stroke-opacity:1"
         d="m 254.34399,50.780316 48.90504,0.488135 -37.07822,2.916908 z"
         id="path1284" />
    </g>
    <ellipse
       style="fill:#850085;fill-opacity:1;stroke:none;stroke-width:6.16014;stroke-linecap:round;stroke-linejoin:round;stroke-miterlimit:4;stroke-dasharray:none;stroke-opacity:1"
       id="path975"
       cx="311.41339"
       cy="112.59789"
       rx="1.3107316"
       ry="2.0714626" />
    <ellipse
       style="fill:#850085;fill-opacity:1;stroke:none;stroke-width:6.16014;stroke-linecap:round;stroke-linejoin:round;stroke-miterlimit:4;stroke-dasharray:none;stroke-opacity:1"
       id="path975-5"
       cx="311.41339"
       cy="128.66872"
       rx="1.3107316"
       ry="2.0714626" />
    <ellipse
       style="fill:#850085;fill-opacity:1;stroke:none;stroke-width:6.16014;stroke-linecap:round;stroke-linejoin:round;stroke-miterlimit:4;stroke-dasharray:none;stroke-opacity:1"
       id="path975-6"
       cx="311.41339"
       cy="120.56553"
       rx="1.3107316"
       ry="2.0714626" />
    <path
       id="path952"
       style="color:#000000;font-style:normal;font-variant:normal;font-weight:normal;font-stretch:normal;font-size:medium;line-height:normal;font-family:sans-serif;font-variant-ligatures:normal;font-variant-position:normal;font-variant-caps:normal;font-variant-numeric:normal;font-variant-alternates:normal;font-variant-east-asian:normal;font-feature-settings:normal;font-variation-settings:normal;text-indent:0;text-align:start;text-decoration:none;text-decoration-line:none;text-decoration-style:solid;text-decoration-color:#000000;letter-spacing:normal;word-spacing:normal;text-transform:none;writing-mode:lr-tb;direction:ltr;text-orientation:mixed;dominant-baseline:auto;baseline-shift:baseline;text-anchor:start;white-space:normal;shape-padding:0;shape-margin:0;inline-size:0;clip-rule:nonzero;display:inline;overflow:visible;visibility:visible;isolation:auto;mix-blend-mode:normal;color-interpolation:sRGB;color-interpolation-filters:linearRGB;solid-color:#000000;solid-opacity:1;vector-effect:none;fill:#850085;fill-opacity:1;fill-rule:nonzero;stroke:none;stroke-width:2.10949;stroke-linecap:round;stroke-linejoin:round;stroke-miterlimit:4;stroke-dasharray:none;stroke-dashoffset:0;stroke-opacity:1;color-rendering:auto;image-rendering:auto;shape-rendering:auto;text-rendering:auto;enable-background:accumulate;stop-color:#000000"
       d="m 335.78955,91.954033 a 0.7826439,1.4214336 0 0 0 -0.78268,1.421501 v 6.078157 c -2.56566,0.37577 -4.89368,2.301679 -6.69943,5.260399 l -2.45241,-4.45405 a 0.7826439,1.4214336 0 0 0 -0.57948,-0.416094 0.7826439,1.4214336 0 0 0 -0.52754,0.416094 0.7826439,1.4214336 0 0 0 0,2.00946 l 2.47143,4.48886 c -1.54049,3.31874 -2.51783,7.52601 -2.66175,12.13266 h -3.60028 a 0.7826439,1.4214336 0 0 0 -0.78269,1.4215 0.7826439,1.4214336 0 0 0 0.78269,1.4215 h 3.61781 c 0.19905,4.53969 1.20816,8.67061 2.76417,11.9151 l -2.59138,4.70642 a 0.7826439,1.4214336 0 0 0 0,2.01055 0.7826439,1.4214336 0 0 0 1.10702,0 l 2.59062,-4.70534 c 1.78562,2.83221 4.06056,4.67065 6.56122,5.03685 v 6.55299 a 0.7826439,1.4214336 0 0 0 0.78268,1.4215 0.7826439,1.4214336 0 0 0 0.78209,-1.4215 v -6.5179 c 2.54096,-0.25702 4.86177,-2.03294 6.69177,-4.83479 l 2.46006,4.46819 a 0.7826439,1.4214336 0 0 0 1.10702,0 0.7826439,1.4214336 0 0 0 0,-2.01055 l -2.44134,-4.43393 c 1.63138,-3.28422 2.69248,-7.5197 2.89713,-12.18759 h 3.33482 a 0.7826439,1.4214336 0 0 0 0.78268,-1.4215 0.7826439,1.4214336 0 0 0 -0.78268,-1.4215 h -3.3173 c -0.14793,-4.73579 -1.17634,-9.04992 -2.79216,-12.41005 l 2.31885,-4.21147 a 0.7826439,1.4214336 0 0 0 0,-2.00946 0.7826439,1.4214336 0 0 0 -0.57965,-0.416094 0.7826439,1.4214336 0 0 0 -0.52737,0.416094 l -2.31914,4.21201 c -1.85104,-2.92827 -4.2262,-4.789764 -6.83269,-5.05344 v -6.043076 a 0.7826439,1.4214336 0 0 0 -0.78209,-1.421501 z m 0.78209,10.313017 c 2.18161,0.25378 4.16694,1.79377 5.72942,4.20875 l -5.72942,10.40575 z m -1.56477,0.0403 v 14.57426 l -5.59765,-10.16644 c 1.51797,-2.44486 3.45698,-4.04685 5.59765,-4.40782 z m 8.40194,6.17688 c 1.33338,2.83605 2.18466,6.44259 2.32708,10.40684 h -8.05695 z m -15.08489,0.28011 5.57564,10.12673 h -7.77351 c 0.13778,-3.83476 0.93871,-7.33503 2.19787,-10.12673 z m -2.1775,12.96973 h 7.75344 l -5.45722,9.91135 c -1.27422,-2.71913 -2.10601,-6.14365 -2.29622,-9.91135 z m 11.53222,0 h 8.03689 c -0.19669,3.89608 -1.07957,7.42494 -2.42815,10.18656 z m -2.67177,2.01002 v 14.09996 c -2.07561,-0.34995 -3.96164,-1.86638 -5.4581,-4.18672 z m 1.56477,0 5.58732,10.14794 c -1.53996,2.29067 -3.47138,3.74617 -5.58732,3.99227 z" />
  </g>
  <path
     style="display:inline;fill:#bebebe;fill-opacity:0.260585;stroke:none;stroke-width:0.202485px;stroke-linecap:butt;stroke-linejoin:miter;stroke-opacity:1"
     d="m 7.8598333,20.30596 c 0,0 53.7847247,-1.073778 74.4916147,20.257482 20.706892,21.331248 18.004632,75.225578 18.004632,75.225578 l 15.34849,-0.97387 7.76497,-10.33496 -0.52848,-81.951115 -6.45541,-10.244101 -66.655903,-1.999016 -33.927814,2.687771 z"
     id="path897-2-29-0-4" />
  <rect
     style="display:inline;fill:none;fill-opacity:1;stroke:#850085;stroke-width:5.96313;stroke-miterlimit:4;stroke-dasharray:none;stroke-opacity:1"
     id="rect877-3-9-3-6-3"
     width="119.35799"
     height="104.47971"
     x="4.2956724"
     y="11.492388"
     rx="17.289509"
     ry="17.289509" />
  <rect
     style="display:inline;fill:url(#radialGradient959-5-8-5-9);fill-opacity:1;stroke:none;stroke-width:5.96313;stroke-miterlimit:4;stroke-dasharray:none;stroke-opacity:1"
     id="rect877-7-1-19-3-0"
     width="119.35799"
     height="104.47971"
     x="4.4526544"
     y="12.489086"
     rx="17.289509"
     ry="17.289509" />
  <rect
     style="display:inline;fill:#ffddff;fill-opacity:1;stroke:#d3b6e4;stroke-width:1.73614;stroke-linecap:round;stroke-linejoin:round;stroke-miterlimit:4;stroke-dasharray:none;stroke-opacity:1"
     id="rect2010-0-7"
     width="118.71696"
     height="33.279865"
     x="3.7106917"
     y="55.588654"
     rx="0"
     ry="0" />
  <text
     xml:space="preserve"
     id="text1011-7-2-8-6-7-8"
     style="font-style:normal;font-variant:normal;font-weight:normal;font-stretch:normal;font-size:13.4779px;line-height:1.25;font-family:'Arial Black';-inkscape-font-specification:'Arial Black, ';text-align:center;white-space:pre;shape-inside:url(#rect1013-0-2-6-0-3-2);display:inline;fill:#850085;fill-opacity:1;stroke:none;"
     transform="matrix(1.782402,0,0,1.782402,-46.482149,-186.34288)"
     x="15.439039"
     y="0"><tspan
       x="32.733825"
       y="149.63478"><tspan>VAULTS</tspan></tspan></text>
  <rect
     style="display:inline;fill:none;fill-opacity:1;stroke:#850085;stroke-width:5.96313;stroke-miterlimit:4;stroke-dasharray:none;stroke-opacity:1"
     id="rect877-3-6-2-4-2-68"
     width="119.35799"
     height="104.47971"
     x="4.2956724"
     y="11.492388"
     rx="17.289509"
     ry="17.289509" />
</svg>
